<svg xmlns="http://www.w3.org/2000/svg" width="920" height="310" viewBox="0 0 920 310" role="img" aria-label="計画と実行の責務"><rect width="920" height="310" fill="#ffffff"/><defs><marker id="arrow" viewBox="0 0 10 10" refX="9" refY="5" markerWidth="7" markerHeight="7" orient="auto-start-reverse"><path d="M 0 0 L 10 5 L 0 10 z" fill="#536579"/></marker></defs><g font-family="sans-serif" fill="#162c43"><text x="32" y="40" font-size="24" font-weight="bold">計画と実行の責務</text><polyline points="257,130 345,115" fill="none" stroke="#536579" stroke-width="2" marker-end="url(#arrow)"/><polyline points="257,180 290,180 290,245 345,245" fill="none" stroke="#536579" stroke-width="2" marker-end="url(#arrow)"/><polyline points="460,155 460,205" fill="none" stroke="#536579" stroke-width="2" marker-end="url(#arrow)"/><polyline points="580,245 665,245" fill="none" stroke="#536579" stroke-width="2" marker-end="url(#arrow)"/><rect x="32" y="105" width="225" height="105" rx="10" fill="#f0f3f7" stroke="#8194a8"/><text x="144.5" y="151.5" text-anchor="middle" font-size="19">CLIまたは</text><text x="144.5" y="177.5" text-anchor="middle" font-size="19">Rustの呼出元</text><rect x="345" y="75" width="235" height="80" rx="10" fill="#eaf3ff" stroke="#8194a8"/><text x="462.5" y="109.0" text-anchor="middle" font-size="19">kakoi-core</text><text x="462.5" y="135.0" text-anchor="middle" font-size="19">検査・合成・計画</text><rect x="345" y="205" width="235" height="80" rx="10" fill="#e6f5ed" stroke="#8194a8"/><text x="462.5" y="239.0" text-anchor="middle" font-size="19">kakoi-net</text><text x="462.5" y="265.0" text-anchor="middle" font-size="19">起動・監督・停止</text><rect x="665" y="205" width="220" height="80" rx="10" fill="#f0f3f7" stroke="#8194a8"/><text x="775.0" y="252.0" text-anchor="middle" font-size="19">OSと通信経路</text><text x="520" y="184" text-anchor="middle" font-size="17">計画</text></g></svg>
